<svg version="1.1" id="Layer_1" xmlns="http://www.w3.org/2000/svg" xmlns:xlink="http://www.w3.org/1999/xlink" x="0px" y="0px"
	 width="100%" viewBox="0 0 930 3004" enable-background="new 0 0 930 3004" xml:space="preserve">
<path fill="#33A0FF" opacity="1.000000" stroke="none" 
	d="
M0.999990,1752.000000 
	C1.000000,1742.645752 1.000000,1733.291504 1.456914,1723.460327 
	C7.866344,1723.309570 13.848140,1724.180420 19.766010,1723.862183 
	C39.139179,1722.820557 58.552757,1721.943604 77.831917,1719.888306 
	C102.193855,1717.290894 125.925896,1711.353516 148.879196,1702.756104 
	C176.511749,1692.406250 203.018097,1679.733276 227.288986,1662.740356 
	C232.850418,1658.846313 238.407928,1654.946777 244.134415,1651.338745 
	C246.148529,1653.046387 247.967941,1654.502686 249.846405,1655.878540 
	C310.963531,1700.639526 372.086823,1745.391846 433.207672,1790.147705 
	C442.701172,1797.099487 452.186920,1804.061646 462.017303,1811.269165 
	C462.848602,1809.496094 463.437744,1808.350952 463.933075,1807.166504 
	C471.896332,1788.127930 479.898468,1769.105591 487.787415,1750.036377 
	C495.927094,1730.360962 503.954102,1710.638916 512.435791,1690.913208 
	C516.851074,1691.855835 520.873474,1692.773438 524.868713,1693.797119 
	C549.496033,1700.106812 574.115906,1706.445801 598.740784,1712.764771 
	C624.494080,1719.373413 650.247375,1725.981689 676.006348,1732.568237 
	C686.292236,1735.198242 696.593018,1737.769775 706.807861,1740.710938 
	C706.172363,1742.795532 705.595093,1744.530518 705.062988,1746.279297 
	C699.842896,1763.436279 695.555908,1780.782837 696.114868,1798.888550 
	C696.390564,1807.815918 697.032349,1816.753174 697.988708,1825.634399 
	C700.463135,1848.612305 707.632263,1870.218140 719.538513,1889.914795 
	C726.733276,1901.817139 735.692383,1912.652954 743.610840,1924.208008 
	C733.990662,1946.864014 724.647644,1969.291992 715.210144,1991.680298 
	C713.980957,1994.596191 714.370789,1996.301392 717.143555,1998.254639 
	C727.758972,2005.731567 738.141541,2013.539062 748.613464,2021.219971 
	C804.328613,2062.085205 860.032776,2102.965088 915.780884,2143.785400 
	C920.706238,2147.392090 925.920105,2150.604492 931.000000,2154.000000 
	C931.000000,2246.354248 931.000000,2338.708252 930.672485,2431.433594 
	C909.908203,2416.885010 889.451294,2401.992920 869.038208,2387.040527 
	C797.183594,2334.409180 725.346558,2281.753662 653.495605,2229.117188 
	C644.267700,2222.356934 634.996826,2215.655029 625.097778,2208.454834 
	C581.544739,2313.104736 538.237366,2417.164551 494.835114,2521.452148 
	C496.704071,2522.044678 497.934875,2522.562744 499.217865,2522.822998 
	C537.488647,2530.583740 575.772644,2538.279297 614.035217,2546.080078 
	C627.683472,2548.862549 641.281921,2551.889404 654.531982,2554.903320 
	C653.375366,2555.276123 652.601013,2555.588867 651.802856,2555.818359 
	C574.981934,2577.908936 498.158264,2599.989502 421.342407,2622.097412 
	C419.507202,2622.625488 417.756439,2623.447021 416.132477,2624.068115 
	C435.107849,2690.363037 453.929504,2756.120850 472.353516,2821.898682 
	C441.977905,2815.890625 411.984955,2809.935059 382.043274,2803.731689 
	C378.784790,2803.056396 377.337646,2803.463379 376.077850,2806.623535 
	C371.516785,2818.064209 366.674438,2829.392578 361.939209,2840.763916 
	C344.982422,2881.485596 327.994080,2922.193848 311.087036,2962.936035 
	C305.286621,2976.913818 299.689819,2990.976318 294.000000,3005.000000 
	C196.446213,3005.000000 98.892418,3005.000000 1.000000,3005.000000 
	C1.000000,2976.646729 1.000000,2948.292236 1.236235,2919.210693 
	C15.669739,2884.345459 29.867006,2850.206787 44.439789,2816.095703 
	C65.048515,2822.165283 85.749382,2826.015137 106.795090,2826.785400 
	C120.343018,2827.280762 134.005646,2826.154053 147.548691,2824.972656 
	C181.993378,2821.968506 214.264145,2811.359863 244.537949,2794.989014 
	C272.322632,2779.964111 296.380005,2760.204834 316.668060,2735.821045 
	C339.514740,2708.362305 355.517609,2677.436035 364.354645,2642.925049 
	C370.053650,2620.668945 372.194000,2598.046143 371.246613,2574.910400 
	C370.206116,2549.501709 365.423981,2525.022705 356.274231,2501.531250 
	C340.752350,2461.680176 316.490906,2427.990479 283.080231,2400.957275 
	C266.937012,2387.895752 249.511185,2377.048340 230.936401,2367.668213 
	C231.858292,2365.141113 232.687531,2362.974121 233.573349,2360.830322 
	C243.005814,2338.004395 252.447250,2315.182129 262.319580,2292.382568 
	C295.062012,2301.221436 327.371002,2310.036621 360.087311,2318.962891 
	C386.425385,2222.577148 412.643860,2126.629150 438.928314,2030.439575 
	C437.474091,2029.905762 436.279358,2029.368164 435.031158,2029.024536 
	C421.561432,2025.314331 408.064667,2021.701294 394.612335,2017.929443 
	C378.126282,2013.307251 361.675629,2008.558838 345.032196,2003.574707 
	C343.954803,2002.546753 343.087463,2001.764404 342.150299,2001.077515 
	C301.999176,1971.647339 261.841370,1942.226318 221.685379,1912.802734 
	C154.399490,1863.500854 87.125458,1814.182861 19.810249,1764.920898 
	C13.674416,1760.430542 7.276318,1756.298462 0.999990,1752.000000 
z"/>
<path fill="#33A0FF" opacity="1.000000" stroke="none" 
	d="
M0.999998,1016.000000 
	C1.000000,930.645752 1.000000,845.291565 1.377053,759.504150 
	C3.448842,758.406555 5.183490,757.828186 6.832096,757.064087 
	C22.089890,749.992249 37.326420,742.874512 52.581238,735.796265 
	C120.545799,704.260437 188.514633,672.733887 256.481415,641.202942 
	C297.110352,622.354553 337.739532,603.506592 378.358551,584.636780 
	C379.175171,584.257385 379.868805,583.613281 380.815643,582.956848 
	C379.992859,582.237732 379.530792,581.772461 379.009674,581.387085 
	C343.795685,555.349243 308.591949,529.297485 273.355682,503.289795 
	C191.228180,442.671783 109.094254,382.062500 26.933731,321.489319 
	C18.389521,315.190063 9.649290,309.156708 1.000003,303.000000 
	C1.000000,218.645767 1.000000,134.291550 1.318452,49.588791 
	C2.474696,49.783016 3.344471,50.282501 4.145700,50.874725 
	C50.987976,85.497894 97.805351,120.154785 144.666016,154.753052 
	C225.802734,214.658127 306.957825,274.538391 388.127777,334.398407 
	C398.958191,342.385437 409.920410,350.193756 420.748474,358.403564 
	C418.243622,362.203491 415.811859,365.684631 413.214478,369.402924 
	C493.971741,430.063782 574.258484,490.371185 654.778442,550.853821 
	C656.100830,549.238647 657.522888,547.623718 658.811157,545.908325 
	C666.712097,535.387512 674.597412,524.854919 682.460510,514.305725 
	C702.662598,487.202454 722.850403,460.088470 743.410645,432.945801 
	C752.342712,437.940796 760.837158,443.094696 769.488037,447.970917 
	C788.397156,458.629486 808.260986,467.082825 829.540710,471.553741 
	C842.792236,474.337891 856.240112,476.420959 869.700745,477.899445 
	C879.707764,478.998535 889.908508,479.242249 899.965149,478.730713 
	C910.346497,478.202667 920.657959,476.300812 931.000000,475.000000 
	C931.000000,511.020905 931.000000,547.041809 930.669739,583.662781 
	C888.934875,603.467712 847.530273,622.672485 805.546631,642.145874 
	C807.168701,643.518921 807.997192,644.304749 808.908325,644.979004 
	C824.953125,656.851807 840.995911,668.727356 857.063477,680.569336 
	C881.699219,698.726135 906.353577,716.857727 931.000000,735.000000 
	C931.000000,790.020874 931.000000,845.041809 930.661499,900.437866 
	C915.275574,892.868713 899.678650,886.055908 883.000366,882.705200 
	C869.276733,879.948120 855.268555,878.064392 841.300598,877.228088 
	C828.830139,876.481567 816.228210,877.448730 803.711731,878.150146 
	C797.130371,878.518982 790.607788,879.938171 783.898376,880.591431 
	C781.345276,878.505493 778.964111,876.695312 776.557861,874.919067 
	C720.870850,833.814758 665.186829,792.706360 609.482117,751.626099 
	C604.544983,747.985168 599.689941,742.138977 594.397217,741.651001 
	C588.881165,741.142395 582.803040,745.717285 577.104553,748.358582 
	C525.938354,772.074036 474.801636,795.853271 423.434662,819.313782 
	C415.904053,799.176147 408.429047,779.396912 401.410309,759.457153 
	C399.785431,754.841003 397.747894,754.446045 393.722900,755.969727 
	C380.504211,760.973694 367.205170,765.765442 353.934143,770.630920 
	C275.657074,799.328491 197.378738,828.022583 119.105614,856.730896 
	C117.774063,857.219238 116.502342,857.870728 115.071709,858.504028 
	C116.586441,862.651611 117.942131,866.372131 119.303734,870.090515 
	C130.855087,901.636108 142.436386,933.170837 153.944687,964.732117 
	C158.215332,976.444275 162.234177,988.248230 166.511276,999.957947 
	C174.091446,1020.710571 181.781296,1041.423096 188.988617,1062.135254 
	C187.251251,1061.867188 185.936234,1061.674072 184.651840,1061.356934 
	C123.432884,1046.244751 62.216595,1031.121704 0.999998,1016.000000 
z"/>
<path fill="#D2DAFF" opacity="1.000000" stroke="none" 
	d="
M243.967285,1651.049805 
	C238.407928,1654.946777 232.850418,1658.846313 227.288986,1662.740356 
	C203.018097,1679.733276 176.511749,1692.406250 148.879196,1702.756104 
	C125.925896,1711.353516 102.193855,1717.290894 77.831917,1719.888306 
	C58.552757,1721.943604 39.139179,1722.820557 19.766010,1723.862183 
	C13.848140,1724.180420 7.866344,1723.309570 1.456914,1722.991699 
	C1.000000,1515.979126 1.000000,1308.958130 1.466752,1101.468628 
	C8.557014,1100.673706 15.211171,1099.776733 21.798170,1100.130371 
	C40.146133,1101.115479 58.491745,1102.337036 76.790886,1103.990112 
	C99.696739,1106.059326 121.948875,1111.738770 143.550369,1119.237427 
	C169.312546,1128.180664 193.960098,1139.842285 217.134659,1154.409058 
	C220.448074,1156.491699 224.015869,1158.169556 227.498047,1160.406616 
	C228.868195,1161.996704 230.155624,1163.276489 231.552185,1164.423462 
	C243.883972,1174.551880 256.934723,1183.923584 268.445404,1194.909790 
	C299.120117,1224.186646 322.820251,1258.499634 339.402069,1297.626221 
	C341.842743,1303.385132 344.419067,1309.086548 346.932037,1315.229492 
	C347.326965,1317.411987 347.599213,1319.217896 348.136353,1320.941162 
	C356.278625,1347.062622 361.974609,1373.606567 362.075623,1401.539551 
	C362.022766,1408.359497 361.853241,1414.765503 362.036377,1421.161377 
	C362.743683,1445.864380 357.757812,1469.825684 351.151245,1493.291138 
	C340.862915,1529.833618 323.437439,1563.037598 300.379578,1593.242798 
	C298.210693,1596.084106 296.192413,1599.040283 293.791260,1602.091309 
	C292.635559,1603.039551 291.765686,1603.813354 290.954224,1604.644165 
	C279.252319,1616.624878 267.625671,1628.680054 255.822830,1640.560303 
	C252.111465,1644.295776 247.932297,1647.566406 243.967285,1651.049805 
z"/>
<path fill="#D2DAFF" opacity="1.000000" stroke="none" 
	d="
M230.870087,2368.039062 
	C249.511185,2377.048340 266.937012,2387.895752 283.080231,2400.957275 
	C316.490906,2427.990479 340.752350,2461.680176 356.274231,2501.531250 
	C365.423981,2525.022705 370.206116,2549.501709 371.246613,2574.910400 
	C372.194000,2598.046143 370.053650,2620.668945 364.354645,2642.925049 
	C355.517609,2677.436035 339.514740,2708.362305 316.668060,2735.821045 
	C296.380005,2760.204834 272.322632,2779.964111 244.537949,2794.989014 
	C214.264145,2811.359863 181.993378,2821.968506 147.548691,2824.972656 
	C134.005646,2826.154053 120.343018,2827.280762 106.795090,2826.785400 
	C85.749382,2826.015137 65.048515,2822.165283 44.096294,2815.928711 
	C40.851574,2814.964111 38.248783,2814.383301 35.813381,2813.391602 
	C24.184124,2808.655273 12.600079,2803.807861 1.000006,2799.000000 
	C1.000000,2656.645752 1.000000,2514.291748 1.358399,2371.421875 
	C12.578644,2366.285156 23.176300,2360.857666 34.352417,2357.195312 
	C66.466934,2346.671631 99.403481,2340.805664 133.330139,2344.086670 
	C149.795639,2345.679199 166.451660,2347.320068 182.438263,2351.288574 
	C198.950668,2355.387451 214.755646,2362.336670 230.870087,2368.039062 
z"/>
<path fill="#99DFFF" opacity="1.000000" stroke="none" 
	d="
M420.821594,358.084839 
	C409.920410,350.193756 398.958191,342.385437 388.127777,334.398407 
	C306.957825,274.538391 225.802734,214.658127 144.666016,154.753052 
	C97.805351,120.154785 50.987976,85.497894 4.145700,50.874725 
	C3.344471,50.282501 2.474696,49.783016 1.318452,49.120132 
	C1.000000,33.008850 1.000000,17.017702 1.000000,1.000000 
	C248.354233,1.000000 495.708466,1.000000 743.381531,1.300964 
	C728.682983,14.156084 713.479553,26.468960 700.815674,41.595200 
	C688.418579,56.402779 676.941528,71.838470 668.108398,89.019806 
	C655.534729,113.477020 645.713501,138.974976 640.646606,166.123825 
	C625.778564,155.178543 611.185669,144.417221 596.766113,133.428482 
	C593.265503,130.760773 591.348633,130.668060 588.486145,134.548904 
	C568.537292,161.594345 548.316711,188.439407 528.177917,215.344727 
	C499.662354,253.441345 471.163116,291.550262 442.609406,329.618317 
	C435.439789,339.176880 428.089081,348.599640 420.821594,358.084839 
z"/>
<path fill="#D2DAFF" opacity="1.000000" stroke="none" 
	d="
M640.985413,166.224182 
	C645.713501,138.974976 655.534729,113.477020 668.108398,89.019806 
	C676.941528,71.838470 688.418579,56.402779 700.815674,41.595200 
	C713.479553,26.468960 728.682983,14.156084 743.850220,1.300964 
	C806.292053,1.000000 868.584167,1.000000 931.000000,1.000000 
	C931.000000,158.687546 931.000000,316.375122 931.000000,474.531372 
	C920.657959,476.300812 910.346497,478.202667 899.965149,478.730713 
	C889.908508,479.242249 879.707764,478.998535 869.700745,477.899445 
	C856.240112,476.420959 842.792236,474.337891 829.540710,471.553741 
	C808.260986,467.082825 788.397156,458.629486 769.488037,447.970917 
	C760.837158,443.094696 752.342712,437.940796 743.343689,432.609009 
	C738.852234,428.692291 734.966736,424.860718 730.707031,421.504059 
	C711.190857,406.125153 695.087097,387.485321 681.334473,367.085876 
	C666.806152,345.535828 655.808960,321.999359 648.154541,297.035400 
	C640.520569,272.138245 636.875610,246.564819 636.113403,220.630676 
	C635.576416,202.361435 637.759460,184.217422 640.985413,166.224182 
z"/>
<path fill="#D2DAFF" opacity="1.000000" stroke="none" 
	d="
M784.058655,880.883057 
	C790.607788,879.938171 797.130371,878.518982 803.711731,878.150146 
	C816.228210,877.448730 828.830139,876.481567 841.300598,877.228088 
	C855.268555,878.064392 869.276733,879.948120 883.000366,882.705200 
	C899.678650,886.055908 915.275574,892.868713 930.661499,900.906494 
	C931.000000,1020.020935 931.000000,1139.041870 930.678467,1258.668457 
	C909.226257,1270.198853 886.996460,1277.476074 863.427856,1281.296509 
	C840.501221,1285.012817 817.722534,1284.764526 795.067566,1280.682861 
	C762.887573,1274.885010 733.213928,1262.772705 706.919922,1242.970703 
	C693.324890,1232.732178 680.429810,1221.725098 670.341003,1207.894897 
	C662.721191,1197.449585 655.579163,1186.655762 648.153015,1175.652954 
	C647.310791,1173.633911 646.578064,1171.960083 645.763855,1170.326782 
	C628.472717,1135.640991 621.109558,1099.056763 625.071289,1060.403442 
	C627.057983,1041.020630 631.580505,1022.212830 639.023193,1004.146179 
	C641.216125,998.823059 643.153687,993.394714 645.539795,987.956543 
	C652.901611,977.283508 659.629578,966.452271 667.029907,956.101746 
	C679.727905,938.341248 696.015930,924.117859 713.886963,911.896484 
	C731.378906,899.934387 750.503906,891.026123 770.944702,885.114075 
	C775.354980,883.838562 779.689331,882.300293 784.058655,880.883057 
z"/>
<path fill="#99DFFF" opacity="1.000000" stroke="none" 
	d="
M654.903076,2554.804688 
	C641.281921,2551.889404 627.683472,2548.862549 614.035217,2546.080078 
	C575.772644,2538.279297 537.488647,2530.583740 499.217865,2522.822998 
	C497.934875,2522.562744 496.704071,2522.044678 494.835114,2521.452148 
	C538.237366,2417.164551 581.544739,2313.104736 625.097778,2208.454834 
	C634.996826,2215.655029 644.267700,2222.356934 653.495605,2229.117188 
	C725.346558,2281.753662 797.183594,2334.409180 869.038208,2387.040527 
	C889.451294,2401.992920 909.908203,2416.885010 930.672485,2431.902344 
	C931.000000,2491.020752 931.000000,2550.041748 930.585083,2609.553711 
	C929.838013,2610.028076 929.497192,2610.053223 929.174744,2609.988037 
	C874.038391,2598.811523 818.908508,2587.603027 763.765076,2576.461670 
	C747.339355,2573.142822 730.875854,2570.011475 714.270813,2566.510254 
	C711.637146,2557.561523 709.162292,2548.896973 706.625305,2540.014893 
	C688.887695,2545.086914 671.895447,2549.945801 654.903076,2554.804688 
z"/>
<path fill="#99DFFF" opacity="1.000000" stroke="none" 
	d="
M648.224487,1176.016846 
	C655.579163,1186.655762 662.721191,1197.449585 670.341003,1207.894897 
	C680.429810,1221.725098 693.324890,1232.732178 706.919922,1242.970703 
	C733.213928,1262.772705 762.887573,1274.885010 795.067566,1280.682861 
	C817.722534,1284.764526 840.501221,1285.012817 863.427856,1281.296509 
	C886.996460,1277.476074 909.226257,1270.198853 930.678467,1259.136963 
	C931.000000,1288.354248 931.000000,1317.708496 930.540466,1347.473999 
	C918.000549,1348.917480 905.919128,1349.937866 893.840088,1350.985474 
	C881.254211,1352.076904 868.664795,1353.132324 856.087402,1354.314941 
	C836.407898,1356.165161 816.740479,1358.144775 797.061646,1360.002808 
	C781.506958,1361.471558 765.937378,1362.784058 750.384338,1364.269043 
	C734.693115,1365.767578 719.020569,1367.462280 703.327820,1368.943970 
	C687.284180,1370.458862 671.220093,1371.757690 655.175415,1373.262817 
	C635.487610,1375.109619 615.815186,1377.119995 596.127625,1378.969849 
	C580.256714,1380.461060 564.366211,1381.743896 548.497314,1383.254639 
	C529.323730,1385.080322 510.171539,1387.132202 490.995636,1388.932007 
	C471.310699,1390.779541 451.599213,1392.344482 431.916016,1394.209229 
	C408.641663,1396.414551 385.385193,1398.808594 362.120941,1401.120850 
	C361.974609,1373.606567 356.278625,1347.062622 348.136353,1320.941162 
	C347.599213,1319.217896 347.326965,1317.411987 346.991089,1314.904785 
	C373.659943,1283.320068 400.255371,1252.463257 426.882721,1221.633911 
	C449.710297,1195.203857 472.613739,1168.838989 495.358795,1142.338135 
	C497.522034,1139.817749 499.457611,1139.226196 502.592407,1140.018677 
	C526.108826,1145.963257 549.659058,1151.774292 573.209106,1157.584839 
	C598.208313,1163.753052 623.218872,1169.874878 648.224487,1176.016846 
z"/>
<path fill="#99DFFF" opacity="1.000000" stroke="none" 
	d="
M230.936432,2367.668213 
	C214.755646,2362.336670 198.950668,2355.387451 182.438263,2351.288574 
	C166.451660,2347.320068 149.795639,2345.679199 133.330139,2344.086670 
	C99.403481,2340.805664 66.466934,2346.671631 34.352417,2357.195312 
	C23.176300,2360.857666 12.578644,2366.285156 1.358399,2370.953125 
	C1.000000,2164.979004 1.000000,1958.958130 0.999990,1752.468628 
	C7.276318,1756.298462 13.674416,1760.430542 19.810249,1764.920898 
	C87.125458,1814.182861 154.399490,1863.500854 221.685379,1912.802734 
	C261.841370,1942.226318 301.999176,1971.647339 342.150299,2001.077515 
	C343.087463,2001.764404 343.954803,2002.546753 344.618713,2003.616943 
	C343.727692,2003.846802 343.055481,2003.806885 342.420074,2003.632690 
	C287.576782,1988.589111 232.737335,1973.531372 177.894531,1958.485840 
	C167.689392,1955.686157 157.471268,1952.933472 146.865738,1950.052124 
	C120.511490,2046.548584 94.300903,2142.519043 68.084518,2238.510742 
	C69.469414,2239.127197 70.192215,2239.566162 70.976456,2239.780762 
	C118.929390,2252.910889 166.894791,2265.995361 214.840668,2279.150879 
	C230.547928,2283.460693 246.205780,2287.950928 261.886230,2292.358887 
	C252.447250,2315.182129 243.005814,2338.004395 233.573349,2360.830322 
	C232.687531,2362.974121 231.858292,2365.141113 230.936432,2367.668213 
z"/>
<path fill="#99DFFF" opacity="1.000000" stroke="none" 
	d="
M294.468689,3005.000000 
	C299.689819,2990.976318 305.286621,2976.913818 311.087036,2962.936035 
	C327.994080,2922.193848 344.982422,2881.485596 361.939209,2840.763916 
	C366.674438,2829.392578 371.516785,2818.064209 376.077850,2806.623535 
	C377.337646,2803.463379 378.784790,2803.056396 382.043274,2803.731689 
	C411.984955,2809.935059 441.977905,2815.890625 472.482269,2822.275391 
	C481.429230,2851.989502 489.849854,2881.346680 498.374207,2911.065674 
	C556.343872,2894.330811 613.682617,2877.778076 671.132202,2861.570068 
	C671.783997,2862.245605 672.287170,2862.760498 672.871582,2862.880615 
	C687.663025,2865.921875 702.461670,2868.927979 717.261536,2871.927979 
	C770.932495,2882.807861 824.600464,2893.702881 878.278015,2904.550537 
	C895.838684,2908.099365 913.425293,2911.520508 931.000000,2915.000000 
	C931.000000,2944.981934 931.000000,2974.963867 931.000000,3005.000000 
	C718.979126,3005.000000 506.958221,3005.000000 294.468689,3005.000000 
z"/>
<path fill="#34A0FF" opacity="1.000000" stroke="none" 
	d="
M362.075623,1401.539551 
	C385.385193,1398.808594 408.641663,1396.414551 431.916016,1394.209229 
	C451.599213,1392.344482 471.310699,1390.779541 490.995636,1388.932007 
	C510.171539,1387.132202 529.323730,1385.080322 548.497314,1383.254639 
	C564.366211,1381.743896 580.256714,1380.461060 596.127625,1378.969849 
	C615.815186,1377.119995 635.487610,1375.109619 655.175415,1373.262817 
	C671.220093,1371.757690 687.284180,1370.458862 703.327820,1368.943970 
	C719.020569,1367.462280 734.693115,1365.767578 750.384338,1364.269043 
	C765.937378,1362.784058 781.506958,1361.471558 797.061646,1360.002808 
	C816.740479,1358.144775 836.407898,1356.165161 856.087402,1354.314941 
	C868.664795,1353.132324 881.254211,1352.076904 893.840088,1350.985474 
	C905.919128,1349.937866 918.000549,1348.917480 930.540466,1347.942627 
	C931.000000,1412.354248 931.000000,1476.708496 930.556763,1541.517090 
	C921.520142,1542.684082 912.903809,1543.211792 904.353699,1544.273315 
	C902.738098,1544.473877 900.714905,1546.513794 900.012512,1548.181885 
	C888.845276,1574.699951 877.862793,1601.295776 866.396240,1627.913452 
	C854.849915,1629.202515 843.695984,1630.128662 832.657776,1631.812866 
	C825.054504,1632.973145 817.611572,1635.183472 810.116699,1636.523804 
	C815.398438,1615.767456 820.705017,1595.423096 825.912415,1575.053589 
	C834.496765,1541.475342 842.933350,1507.859009 851.667419,1474.319824 
	C852.789062,1470.012817 851.355042,1468.782837 847.614929,1467.879395 
	C831.206421,1463.915527 814.818909,1459.859497 798.466736,1455.669312 
	C773.495239,1449.270020 748.566772,1442.702881 723.605774,1436.262817 
	C700.980835,1430.425293 678.325684,1424.704468 655.703979,1418.854614 
	C631.788452,1412.670532 607.908020,1406.350464 583.988098,1400.183472 
	C575.978210,1398.118530 567.893799,1396.342407 559.595032,1394.375488 
	C559.226807,1396.118286 559.007751,1397.386719 558.689209,1398.629883 
	C551.793213,1425.541992 544.881836,1452.450073 537.982178,1479.361206 
	C529.297913,1513.233521 520.621460,1547.107910 511.540009,1581.065430 
	C502.593536,1582.065186 494.057281,1583.072144 485.501923,1583.875122 
	C473.294708,1585.020996 461.065155,1585.930542 448.860260,1587.098999 
	C433.042450,1588.613525 417.248108,1590.375610 401.427704,1591.861084 
	C385.264130,1593.378784 369.072235,1594.595093 352.909119,1596.117310 
	C333.298553,1597.964111 313.705109,1599.993164 294.104248,1601.943237 
	C296.192413,1599.040283 298.210693,1596.084106 300.379578,1593.242798 
	C323.437439,1563.037598 340.862915,1529.833618 351.151245,1493.291138 
	C357.757812,1469.825684 362.743683,1445.864380 362.036377,1421.161377 
	C361.853241,1414.765503 362.022766,1408.359497 362.075623,1401.539551 
z"/>
<path fill="#D2DAFF" opacity="1.000000" stroke="none" 
	d="
M810.097046,1636.924561 
	C817.611572,1635.183472 825.054504,1632.973145 832.657776,1631.812866 
	C843.695984,1630.128662 854.849915,1629.202515 866.861450,1627.953125 
	C879.694397,1629.533691 891.735229,1630.536865 903.509827,1632.878662 
	C912.842468,1634.734619 921.848755,1638.231689 931.000000,1641.000000 
	C931.000000,1748.020874 931.000000,1855.041870 930.619507,1962.530762 
	C929.440247,1963.207031 928.603149,1963.323120 927.848145,1963.636841 
	C908.923218,1971.496704 889.096924,1975.464233 868.730103,1975.872314 
	C844.024109,1976.367310 820.040222,1971.865601 797.691650,1961.116455 
	C786.672913,1955.816772 776.127014,1949.321167 766.013733,1942.419312 
	C758.111816,1937.026367 751.206787,1930.172485 743.858765,1923.967896 
	C735.692383,1912.652954 726.733276,1901.817139 719.538513,1889.914795 
	C707.632263,1870.218140 700.463135,1848.612305 697.988708,1825.634399 
	C697.032349,1816.753174 696.390564,1807.815918 696.114868,1798.888550 
	C695.555908,1780.782837 699.842896,1763.436279 705.062988,1746.279297 
	C705.595093,1744.530518 706.172363,1742.795532 706.951416,1740.353516 
	C714.328918,1721.636963 723.672546,1704.955933 735.962524,1689.836182 
	C746.439392,1676.947021 758.436462,1665.738892 772.387878,1657.022949 
	C784.439392,1649.494019 797.488770,1643.562378 810.097046,1636.924561 
z"/>
<path fill="#33A0FF" opacity="1.000000" stroke="none" 
	d="
M931.000000,2914.531250 
	C913.425293,2911.520508 895.838684,2908.099365 878.278015,2904.550537 
	C824.600464,2893.702881 770.932495,2882.807861 717.261536,2871.927979 
	C702.461670,2868.927979 687.663025,2865.921875 672.871582,2862.880615 
	C672.287170,2862.760498 671.783997,2862.245605 671.522095,2861.486816 
	C710.433167,2849.956299 749.065125,2838.853516 788.274170,2827.585205 
	C787.892822,2825.335205 787.736572,2823.218506 787.165833,2821.220215 
	C774.904297,2778.294678 762.578491,2735.387695 750.302612,2692.466309 
	C738.323181,2650.582031 726.385559,2608.685547 714.429626,2566.794434 
	C730.875854,2570.011475 747.339355,2573.142822 763.765076,2576.461670 
	C818.908508,2587.603027 874.038391,2598.811523 929.174744,2609.988037 
	C929.497192,2610.053223 929.838013,2610.028076 930.585083,2610.022461 
	C931.000000,2711.354248 931.000000,2812.708252 931.000000,2914.531250 
z"/>
<path fill="#D2DAFF" opacity="1.000000" stroke="none" 
	d="
M1.000000,690.000000 
	C1.000000,598.645752 1.000000,507.291534 1.319355,415.314209 
	C4.711153,413.432098 7.705270,411.914734 10.868663,410.955811 
	C32.353405,404.442902 54.259506,400.709320 76.654610,404.205170 
	C88.893677,406.115631 101.306122,408.520691 112.877449,412.776886 
	C138.744492,422.291412 160.710861,437.788269 178.076492,459.523224 
	C189.843719,474.251221 198.703598,490.469818 204.050415,508.530334 
	C209.652969,527.454651 213.129181,546.754944 209.887604,566.468567 
	C207.744049,579.504578 205.524506,592.781677 201.066635,605.130493 
	C191.985336,630.286621 176.414856,651.245361 155.447815,668.085266 
	C140.088608,680.421143 123.046585,689.535583 104.178932,695.104248 
	C84.260620,700.982971 63.970943,703.779968 43.210968,700.965271 
	C28.717031,699.000183 14.310493,696.576904 1.000000,690.000000 
z"/>
<path fill="#99DFFF" opacity="1.000000" stroke="none" 
	d="
M1.000000,690.468628 
	C14.310493,696.576904 28.717031,699.000183 43.210968,700.965271 
	C63.970943,703.779968 84.260620,700.982971 104.178932,695.104248 
	C123.046585,689.535583 140.088608,680.421143 155.447815,668.085266 
	C176.414856,651.245361 191.985336,630.286621 201.066635,605.130493 
	C205.524506,592.781677 207.744049,579.504578 209.887604,566.468567 
	C213.129181,546.754944 209.652969,527.454651 204.050415,508.530334 
	C198.703598,490.469818 189.843719,474.251221 178.076492,459.523224 
	C160.710861,437.788269 138.744492,422.291412 112.877449,412.776886 
	C101.306122,408.520691 88.893677,406.115631 76.654610,404.205170 
	C54.259506,400.709320 32.353405,404.442902 10.868663,410.955811 
	C7.705270,411.914734 4.711153,413.432098 1.319355,414.845551 
	C1.000000,377.979095 1.000000,340.958221 1.000003,303.468658 
	C9.649290,309.156708 18.389521,315.190063 26.933731,321.489319 
	C109.094254,382.062500 191.228180,442.671783 273.355682,503.289795 
	C308.591949,529.297485 343.795685,555.349243 379.009674,581.387085 
	C379.530792,581.772461 379.992859,582.237732 380.815643,582.956848 
	C379.868805,583.613281 379.175171,584.257385 378.358551,584.636780 
	C337.739532,603.506592 297.110352,622.354553 256.481415,641.202942 
	C188.514633,672.733887 120.545799,704.260437 52.581238,735.796265 
	C37.326420,742.874512 22.089890,749.992249 6.832096,757.064087 
	C5.183490,757.828186 3.448842,758.406555 1.377053,759.035522 
	C1.000000,736.312439 1.000000,713.624878 1.000000,690.468628 
z"/>
<path fill="#99DFFF" opacity="1.000000" stroke="none" 
	d="
M743.610840,1924.208008 
	C751.206787,1930.172485 758.111816,1937.026367 766.013733,1942.419312 
	C776.127014,1949.321167 786.672913,1955.816772 797.691650,1961.116455 
	C820.040222,1971.865601 844.024109,1976.367310 868.730103,1975.872314 
	C889.096924,1975.464233 908.923218,1971.496704 927.848145,1963.636841 
	C928.603149,1963.323120 929.440247,1963.207031 930.619507,1962.999390 
	C931.000000,2026.354126 931.000000,2089.708252 931.000000,2153.531250 
	C925.920105,2150.604492 920.706238,2147.392090 915.780884,2143.785400 
	C860.032776,2102.965088 804.328613,2062.085205 748.613464,2021.219971 
	C738.141541,2013.539062 727.758972,2005.731567 717.143555,1998.254639 
	C714.370789,1996.301392 713.980957,1994.596191 715.210144,1991.680298 
	C724.647644,1969.291992 733.990662,1946.864014 743.610840,1924.208008 
z"/>
<path fill="#99DFFF" opacity="1.000000" stroke="none" 
	d="
M227.465942,1160.034790 
	C224.015869,1158.169556 220.448074,1156.491699 217.134659,1154.409058 
	C193.960098,1139.842285 169.312546,1128.180664 143.550369,1119.237427 
	C121.948875,1111.738770 99.696739,1106.059326 76.790886,1103.990112 
	C58.491745,1102.337036 40.146133,1101.115479 21.798170,1100.130371 
	C15.211171,1099.776733 8.557014,1100.673706 1.466752,1101.000000 
	C1.000000,1072.979126 1.000000,1044.958252 0.999998,1016.468628 
	C62.216595,1031.121704 123.432884,1046.244751 184.651840,1061.356934 
	C185.936234,1061.674072 187.251251,1061.867188 189.187378,1062.387329 
	C198.578064,1086.687500 207.376266,1110.703003 216.039459,1134.767090 
	C217.251877,1138.134888 219.075714,1138.604370 222.127823,1137.442993 
	C229.888962,1134.489380 237.670471,1131.582275 245.508179,1128.840454 
	C248.914108,1127.648804 252.478165,1126.909058 255.967743,1126.312378 
	C246.465347,1137.785278 236.965622,1148.910034 227.465942,1160.034790 
z"/>
<path fill="#99DFFF" opacity="1.000000" stroke="none" 
	d="
M931.000000,734.531372 
	C906.353577,716.857727 881.699219,698.726135 857.063477,680.569336 
	C840.995911,668.727356 824.953125,656.851807 808.908325,644.979004 
	C807.997192,644.304749 807.168701,643.518921 805.546631,642.145874 
	C847.530273,622.672485 888.934875,603.467712 930.669739,584.131470 
	C931.000000,634.020874 931.000000,684.041809 931.000000,734.531372 
z"/>
<path fill="#99DFFF" opacity="1.000000" stroke="none" 
	d="
M931.000000,1640.531372 
	C921.848755,1638.231689 912.842468,1634.734619 903.509827,1632.878662 
	C891.735229,1630.536865 879.694397,1629.533691 867.303223,1627.913330 
	C877.862793,1601.295776 888.845276,1574.699951 900.012512,1548.181885 
	C900.714905,1546.513794 902.738098,1544.473877 904.353699,1544.273315 
	C912.903809,1543.211792 921.520142,1542.684082 930.556763,1541.985718 
	C931.000000,1574.687622 931.000000,1607.375122 931.000000,1640.531372 
z"/>
<path fill="#99DFFF" opacity="1.000000" stroke="none" 
	d="
M1.000006,2799.468750 
	C12.600079,2803.807861 24.184124,2808.655273 35.813381,2813.391602 
	C38.248783,2814.383301 40.851574,2814.964111 43.720779,2815.901367 
	C29.867006,2850.206787 15.669739,2884.345459 1.236235,2918.741943 
	C1.000000,2879.312500 1.000000,2839.625000 1.000006,2799.468750 
z"/>
<path fill="#FFCAEB" opacity="1.000000" stroke="none" 
	d="
M262.319611,2292.382324 
	C246.205780,2287.950928 230.547928,2283.460693 214.840668,2279.150879 
	C166.894791,2265.995361 118.929390,2252.910889 70.976456,2239.780762 
	C70.192215,2239.566162 69.469414,2239.127197 68.084518,2238.510742 
	C94.300903,2142.519043 120.511490,2046.548584 146.865738,1950.052124 
	C157.471268,1952.933472 167.689392,1955.686157 177.894531,1958.485840 
	C232.737335,1973.531372 287.576782,1988.589111 342.420074,2003.632690 
	C343.055481,2003.806885 343.727692,2003.846802 344.796204,2003.907227 
	C361.675629,2008.558838 378.126282,2013.307251 394.612335,2017.929443 
	C408.064667,2021.701294 421.561432,2025.314331 435.031158,2029.024536 
	C436.279358,2029.368164 437.474091,2029.905762 438.928314,2030.439575 
	C412.643860,2126.629150 386.425385,2222.577148 360.087311,2318.962891 
	C327.371002,2310.036621 295.062012,2301.221436 262.319611,2292.382324 
z"/>
<path fill="#FFCAEB" opacity="1.000000" stroke="none" 
	d="
M714.270813,2566.510254 
	C726.385559,2608.685547 738.323181,2650.582031 750.302612,2692.466309 
	C762.578491,2735.387695 774.904297,2778.294678 787.165833,2821.220215 
	C787.736572,2823.218506 787.892822,2825.335205 788.274170,2827.585205 
	C749.065125,2838.853516 710.433167,2849.956299 671.411316,2861.142090 
	C613.682617,2877.778076 556.343872,2894.330811 498.374207,2911.065674 
	C489.849854,2881.346680 481.429230,2851.989502 472.879883,2822.255371 
	C453.929504,2756.120850 435.107849,2690.363037 416.132477,2624.068115 
	C417.756439,2623.447021 419.507202,2622.625488 421.342407,2622.097412 
	C498.158264,2599.989502 574.981934,2577.908936 651.802856,2555.818359 
	C652.601013,2555.588867 653.375366,2555.276123 654.531982,2554.903320 
	C671.895447,2549.945801 688.887695,2545.086914 706.625305,2540.014893 
	C709.162292,2548.896973 711.637146,2557.561523 714.270813,2566.510254 
z"/>
<path fill="#FFCAEB" opacity="1.000000" stroke="none" 
	d="
M810.116760,1636.523926 
	C797.488770,1643.562378 784.439392,1649.494019 772.387878,1657.022949 
	C758.436462,1665.738892 746.439392,1676.947021 735.962524,1689.836182 
	C723.672546,1704.955933 714.328918,1721.636963 707.030640,1740.010376 
	C696.593018,1737.769775 686.292236,1735.198242 676.006348,1732.568237 
	C650.247375,1725.981689 624.494080,1719.373413 598.740784,1712.764771 
	C574.115906,1706.445801 549.496033,1700.106812 524.868713,1693.797119 
	C520.873474,1692.773438 516.851074,1691.855835 512.164795,1690.660278 
	C503.077087,1688.166504 494.665863,1685.901611 486.041779,1683.579346 
	C490.291565,1666.970459 494.409912,1651.053101 498.431427,1635.111450 
	C502.980164,1617.079468 507.442047,1599.025635 511.941711,1580.981323 
	C520.621460,1547.107910 529.297913,1513.233521 537.982178,1479.361206 
	C544.881836,1452.450073 551.793213,1425.541992 558.689209,1398.629883 
	C559.007751,1397.386719 559.226807,1396.118286 559.595032,1394.375488 
	C567.893799,1396.342407 575.978210,1398.118530 583.988098,1400.183472 
	C607.908020,1406.350464 631.788452,1412.670532 655.703979,1418.854614 
	C678.325684,1424.704468 700.980835,1430.425293 723.605774,1436.262817 
	C748.566772,1442.702881 773.495239,1449.270020 798.466736,1455.669312 
	C814.818909,1459.859497 831.206421,1463.915527 847.614929,1467.879395 
	C851.355042,1468.782837 852.789062,1470.012817 851.667419,1474.319824 
	C842.933350,1507.859009 834.496765,1541.475342 825.912415,1575.053589 
	C820.705017,1595.423096 815.398438,1615.767456 810.116760,1636.523926 
z"/>
<path fill="#99DFFF" opacity="1.000000" stroke="none" 
	d="
M511.540039,1581.065430 
	C507.442047,1599.025635 502.980164,1617.079468 498.431427,1635.111450 
	C494.409912,1651.053101 490.291565,1666.970459 486.041779,1683.579346 
	C494.665863,1685.901611 503.077087,1688.166504 511.759338,1690.684326 
	C503.954102,1710.638916 495.927094,1730.360962 487.787415,1750.036377 
	C479.898468,1769.105591 471.896332,1788.127930 463.933075,1807.166504 
	C463.437744,1808.350952 462.848602,1809.496094 462.017303,1811.269165 
	C452.186920,1804.061646 442.701172,1797.099487 433.207672,1790.147705 
	C372.086823,1745.391846 310.963531,1700.639526 249.846405,1655.878540 
	C247.967941,1654.502686 246.148529,1653.046387 244.134430,1651.338745 
	C247.932297,1647.566406 252.111465,1644.295776 255.822830,1640.560303 
	C267.625671,1628.680054 279.252319,1616.624878 290.954224,1604.644165 
	C291.765686,1603.813354 292.635559,1603.039551 293.791260,1602.091309 
	C313.705109,1599.993164 333.298553,1597.964111 352.909119,1596.117310 
	C369.072235,1594.595093 385.264130,1593.378784 401.427704,1591.861084 
	C417.248108,1590.375610 433.042450,1588.613525 448.860260,1587.098999 
	C461.065155,1585.930542 473.294708,1585.020996 485.501923,1583.875122 
	C494.057281,1583.072144 502.593536,1582.065186 511.540039,1581.065430 
z"/>
<path fill="#FFCAEB" opacity="1.000000" stroke="none" 
	d="
M255.970444,1125.964111 
	C252.478165,1126.909058 248.914108,1127.648804 245.508179,1128.840454 
	C237.670471,1131.582275 229.888962,1134.489380 222.127823,1137.442993 
	C219.075714,1138.604370 217.251877,1138.134888 216.039459,1134.767090 
	C207.376266,1110.703003 198.578064,1086.687500 189.624008,1062.404541 
	C181.781296,1041.423096 174.091446,1020.710571 166.511276,999.957947 
	C162.234177,988.248230 158.215332,976.444275 153.944687,964.732117 
	C142.436386,933.170837 130.855087,901.636108 119.303734,870.090515 
	C117.942131,866.372131 116.586441,862.651611 115.071709,858.504028 
	C116.502342,857.870728 117.774063,857.219238 119.105614,856.730896 
	C197.378738,828.022583 275.657074,799.328491 353.934143,770.630920 
	C367.205170,765.765442 380.504211,760.973694 393.722900,755.969727 
	C397.747894,754.446045 399.785431,754.841003 401.410309,759.457153 
	C408.429047,779.396912 415.904053,799.176147 423.507111,819.657654 
	C424.329987,822.051392 424.772644,823.832825 425.400177,825.546509 
	C440.101593,865.694336 454.822998,905.834778 469.681213,946.342896 
	C480.492279,975.986389 491.162872,1005.263550 501.888153,1034.690796 
	C500.160187,1035.375854 498.944885,1035.889893 497.707428,1036.343628 
	C430.733429,1060.900879 363.747925,1085.426758 296.790009,1110.027588 
	C283.529388,1114.899780 270.373901,1120.057861 256.894226,1125.118164 
	C256.402283,1125.428223 256.185974,1125.703979 255.980606,1125.985474 
	C255.991547,1125.991089 255.970459,1125.964233 255.970444,1125.964111 
z"/>
<path fill="#FFCAEB" opacity="1.000000" stroke="none" 
	d="
M640.646606,166.123825 
	C637.759460,184.217422 635.576416,202.361435 636.113403,220.630676 
	C636.875610,246.564819 640.520569,272.138245 648.154541,297.035400 
	C655.808960,321.999359 666.806152,345.535828 681.334473,367.085876 
	C695.087097,387.485321 711.190857,406.125153 730.707031,421.504059 
	C734.966736,424.860718 738.852234,428.692291 742.976929,432.641937 
	C722.850403,460.088470 702.662598,487.202454 682.460510,514.305725 
	C674.597412,524.854919 666.712097,535.387512 658.811157,545.908325 
	C657.522888,547.623718 656.100830,549.238647 654.778442,550.853821 
	C574.258484,490.371185 493.971741,430.063782 413.214478,369.402924 
	C415.811859,365.684631 418.243622,362.203491 420.748474,358.403595 
	C428.089081,348.599640 435.439789,339.176880 442.609406,329.618317 
	C471.163116,291.550262 499.662354,253.441345 528.177917,215.344727 
	C548.316711,188.439407 568.537292,161.594345 588.486145,134.548904 
	C591.348633,130.668060 593.265503,130.760773 596.766113,133.428482 
	C611.185669,144.417221 625.778564,155.178543 640.646606,166.123825 
z"/>
<path fill="#99DFFF" opacity="1.000000" stroke="none" 
	d="
M469.540710,945.976685 
	C454.822998,905.834778 440.101593,865.694336 425.400177,825.546509 
	C424.772644,823.832825 424.329987,822.051392 423.728760,819.957642 
	C474.801636,795.853271 525.938354,772.074036 577.104553,748.358582 
	C582.803040,745.717285 588.881165,741.142395 594.397217,741.651001 
	C599.689941,742.138977 604.544983,747.985168 609.482117,751.626099 
	C665.186829,792.706360 720.870850,833.814758 776.557861,874.919067 
	C778.964111,876.695312 781.345276,878.505493 783.898376,880.591492 
	C779.689331,882.300293 775.354980,883.838562 770.944702,885.114075 
	C750.503906,891.026123 731.378906,899.934387 713.886963,911.896484 
	C696.015930,924.117859 679.727905,938.341248 667.029907,956.101746 
	C659.629578,966.452271 652.901611,977.283508 645.107178,987.980957 
	C643.358643,987.920105 642.353455,987.859802 641.392395,987.621521 
	C594.145203,975.905762 546.914978,964.121399 499.647400,952.488708 
	C489.681244,950.035950 479.579803,948.132935 469.540710,945.976685 
z"/>
<path fill="#33A0FF" opacity="1.000000" stroke="none" 
	d="
M469.681213,946.342957 
	C479.579803,948.132935 489.681244,950.035950 499.647400,952.488708 
	C546.914978,964.121399 594.145203,975.905762 641.392395,987.621521 
	C642.353455,987.859802 643.358643,987.920105 644.775757,988.039062 
	C643.153687,993.394714 641.216125,998.823059 639.023193,1004.146179 
	C631.580505,1022.212830 627.057983,1041.020630 625.071289,1060.403442 
	C621.109558,1099.056763 628.472717,1135.640991 645.763855,1170.326782 
	C646.578064,1171.960083 647.310791,1173.633911 648.153015,1175.652832 
	C623.218872,1169.874878 598.208313,1163.753052 573.209106,1157.584839 
	C549.659058,1151.774292 526.108826,1145.963257 502.592407,1140.018677 
	C499.457611,1139.226196 497.522034,1139.817749 495.358795,1142.338135 
	C472.613739,1168.838989 449.710297,1195.203857 426.882721,1221.633911 
	C400.255371,1252.463257 373.659943,1283.320068 346.991638,1314.489746 
	C344.419067,1309.086548 341.842743,1303.385132 339.402069,1297.626221 
	C322.820251,1258.499634 299.120117,1224.186646 268.445404,1194.909790 
	C256.934723,1183.923584 243.883972,1174.551880 231.552185,1164.423462 
	C230.155624,1163.276489 228.868195,1161.996704 227.498016,1160.406616 
	C236.965622,1148.910034 246.465347,1137.785278 255.967773,1126.312500 
	C255.970459,1125.964233 255.991547,1125.991089 256.245361,1125.944824 
	C256.722748,1125.627197 256.946381,1125.355713 257.169952,1125.084229 
	C270.373901,1120.057861 283.529388,1114.899780 296.790009,1110.027588 
	C363.747925,1085.426758 430.733429,1060.900879 497.707428,1036.343628 
	C498.944885,1035.889893 500.160187,1035.375854 501.888153,1034.690796 
	C491.162872,1005.263550 480.492279,975.986389 469.681213,946.342957 
z"/>
<path fill="#99DFFF" opacity="1.000000" stroke="none" 
	d="
M256.894287,1125.118286 
	C256.946381,1125.355713 256.722748,1125.627197 256.234406,1125.939209 
	C256.185974,1125.703979 256.402283,1125.428223 256.894287,1125.118286 
z"/>
</svg>